<svg xmlns="http://www.w3.org/2000/svg" width="48" height="48" viewBox="0 0 48 48" fill="none">
  <rect x="10" y="4" width="28" height="34" rx="3" fill="#1A365D" />
  
  <circle cx="24" cy="21" r="7" stroke="white" stroke-width="3" fill="none"/>
  <path d="M17 21H31" stroke="white" stroke-width="2.5" stroke-linecap="round"/>
  <path d="M24 14C26 16.5 26 25.5 24 28C22 25.5 22 16.5 24 14Z" stroke="white" stroke-width="2" fill="none"/>
  
  <path d="M12 44C18 41 30 41 36 44" stroke="#2D96A0" stroke-width="3.5" stroke-linecap="round"/>

  <path d="M34 26C30.5 26 28 28.5 28 32C28 36 34 41 34 41C34 41 40 36 40 32C40 28.5 37.5 26 34 26Z" fill="#2D96A0" />
  <circle cx="34" cy="31.5" r="2" fill="#1A365D" />
</svg>
